<svg width="38" height="38" viewBox="0 0 38 38" fill="none" xmlns="http://www.w3.org/2000/svg">
<path d="M16.7848 0.121993C12.4658 0.68914 8.71029 2.48511 5.70585 5.42991C3.11307 7.96753 1.37251 11.0287 0.498617 14.5915C0.123061 16.1257 -0.00693909 17.3037 0.000283145 19.0269C0.00750538 22.1535 0.621395 24.7275 2.02973 27.5632C3.43807 30.3844 5.66252 32.9074 8.37809 34.7398C12.0037 37.1829 16.6042 38.3608 20.757 37.9028C25.5237 37.3719 29.3298 35.576 32.5365 32.3258C36.8698 27.9268 38.6898 22.2408 37.7653 15.9003C37.2309 12.1775 35.1003 8.07659 32.3342 5.42264C29.7198 2.92138 26.5781 1.21994 23.1403 0.449193C21.1687 0.0129265 18.6337 -0.125225 16.7848 0.121993ZM21.342 2.52146C26.5492 3.28493 31.1498 6.65146 33.5331 11.4432C34.2553 12.8973 34.7753 14.5406 35.0353 16.1548C35.2159 17.2746 35.2159 20.2775 35.0353 21.3173C34.5514 24.0658 33.5692 26.3926 31.9226 28.6248C31.6481 29.0029 30.9332 29.8027 30.3409 30.3989L29.2648 31.4751L29.3081 32.035L29.3514 32.5876L29.142 31.7877C28.8964 30.8352 28.6798 30.3044 28.362 29.8827C28.232 29.7082 28.1237 29.5264 28.1237 29.4755C28.1309 29.4319 28.3115 29.2574 28.5354 29.0974C28.9398 28.8066 29.4959 28.2176 29.7992 27.7522C29.9075 27.5995 30.0592 27.476 30.2109 27.4323C30.572 27.3305 30.9837 26.9015 31.0776 26.5307C31.1787 26.1744 31.1425 26.0072 30.897 25.6364L30.7165 25.3746L30.8753 24.6548C31.0342 23.9422 31.0342 23.9277 30.9114 22.8079C30.8464 22.1899 30.7959 21.5936 30.7959 21.4918C30.7959 21.2373 30.2398 20.1176 29.7992 19.4995C29.0626 18.4525 28.7881 18.2053 27.7192 17.6818C26.477 17.0637 26.022 16.9619 24.7653 17.0128C23.6676 17.0564 22.7431 17.2673 21.8981 17.6745C21.0459 18.0817 20.0781 19.0487 19.1465 20.4375C18.8286 20.9029 18.807 20.961 18.807 21.4118C18.807 21.7608 18.7348 22.1026 18.547 22.6915C18.2292 23.6877 18.2437 23.9204 18.6987 24.6984C18.8792 25.0038 19.0236 25.2946 19.0236 25.3309C19.0236 25.3746 18.9298 25.5127 18.807 25.6436C18.4242 26.0581 18.4315 26.6979 18.8286 27.127C19.0525 27.3669 19.6014 27.5923 19.7387 27.4978C19.7748 27.476 19.7459 27.2942 19.6665 27.0979C19.4498 26.5235 19.5075 26.5016 19.7748 27.0615C20.302 28.1812 21.017 28.9011 22.1653 29.4682C23.032 29.8899 23.7759 30.079 24.8376 30.1299C25.3142 30.1517 25.6392 30.1953 25.5598 30.2244C25.1264 30.3771 23.1331 30.0935 22.2159 29.7446L21.7392 29.5628L21.6165 29.73C21.3492 30.079 20.822 31.2351 20.692 31.7513C20.6198 32.0495 20.5186 32.653 20.4681 33.0892C20.3236 34.449 20.2659 34.5725 20.1142 33.7727C19.8615 32.4494 18.1642 26.1817 17.9548 25.8036C17.9259 25.7454 17.4709 25.5928 16.9437 25.4619C16.4165 25.3237 15.8386 25.1637 15.6581 25.091C15.4848 25.0256 15.3186 24.9892 15.297 25.0111C15.2753 25.0329 15.3981 25.2437 15.5714 25.4764C15.7448 25.709 15.9903 26.0653 16.1203 26.2617C16.4598 26.807 17.247 28.5084 17.4781 29.1847C17.7309 29.9045 17.7092 29.9554 16.9509 30.6025C16.662 30.8497 16.4237 31.1043 16.4237 31.1697C16.4237 31.2278 16.7559 31.5914 17.1604 31.9695C17.8608 32.6312 17.8898 32.6748 17.832 32.8784L17.767 33.0965L17.7381 32.8711C17.7237 32.6966 17.5503 32.5003 16.9653 31.9404C16.5464 31.555 16.207 31.1915 16.207 31.1333C16.207 31.0825 16.467 30.8134 16.7775 30.5371C17.572 29.8536 17.5792 29.81 17.2542 28.9738C16.7053 27.5705 15.5281 25.4037 15.0947 24.9965C14.9576 24.8656 14.907 24.742 14.907 24.5457C14.907 24.2476 14.972 24.1748 15.3403 24.0512C15.7159 23.9277 16.0842 23.644 16.337 23.2878C16.5392 23.0042 16.6258 22.9533 17.182 22.7788C17.5214 22.6697 17.7959 22.5534 17.7959 22.5243C17.7959 22.4879 17.6659 22.2989 17.507 22.1098C17.1965 21.7317 17.1386 21.4628 17.3481 21.3973C17.4131 21.3755 17.6659 21.3391 17.9042 21.31C18.1426 21.2882 18.3592 21.2519 18.3881 21.2301C18.417 21.2155 18.3447 20.9392 18.2292 20.6193C18.1064 20.2994 18.0125 19.994 18.0125 19.9504C18.0125 19.8994 18.2003 19.8049 18.4315 19.7249C18.9442 19.5577 19.8181 19.1214 19.8181 19.0342C19.8181 18.9979 19.5509 18.8233 19.2331 18.6488C18.6047 18.3143 17.9692 17.8053 18.0631 17.7181C18.092 17.689 18.352 17.5872 18.6264 17.5C19.3197 17.2673 20.0564 16.9256 20.6342 16.5547C20.9015 16.3875 21.1181 16.2348 21.1037 16.2275C21.0747 16.2057 19.1176 15.3622 18.9298 15.2968C18.8431 15.2605 18.8214 15.2169 18.8575 15.1514C18.8865 15.0932 19.3631 14.6279 19.912 14.1189C20.4537 13.6026 20.9015 13.1591 20.9015 13.1301C20.9015 13.0718 20.4537 12.9919 19.132 12.8028C18.6553 12.7301 18.2364 12.6574 18.2076 12.6283C18.1715 12.5993 18.5037 11.9594 18.9442 11.2104C19.6592 9.9816 19.7964 9.71986 19.7242 9.71986C19.7098 9.71986 19.1175 9.93076 18.4098 10.1925C17.377 10.5706 17.0953 10.6433 17.0231 10.5706C16.8642 10.4106 16.7126 9.21089 16.7126 8.13473V7.095L16.1275 7.40765C15.4415 7.77852 14.5242 8.49831 14.0981 9.00007C13.9392 9.19637 13.7731 9.35635 13.7442 9.35635C13.708 9.35635 13.4336 9.02188 13.1231 8.60737C12.5886 7.8948 11.6858 6.88413 11.5848 6.88413C11.5559 6.88413 11.498 7.20406 11.4547 7.58943C11.3248 8.68011 10.942 10.0107 10.7542 10.0107C10.7036 10.0107 10.357 9.86532 9.98861 9.69075C9.39642 9.41449 8.49361 9.13816 8.16142 9.13816C8.07478 9.13816 8.1181 9.26903 8.32755 9.69805C8.64531 10.3452 8.93418 11.3559 8.89808 11.7049L8.87642 11.9375L8.2264 11.9885C6.33418 12.1339 5.44585 12.2212 5.44585 12.2575C5.44585 12.2866 5.76363 12.6283 6.15363 13.0282C6.88307 13.7699 7.41752 14.5624 7.3814 14.8388C7.36696 14.9405 6.99863 15.2459 6.24029 15.7768C5.6264 16.2057 5.11362 16.5911 5.09918 16.6274C5.08474 16.6638 5.16418 16.7147 5.27974 16.7438C6.05251 16.911 6.38474 17.0201 6.65918 17.18C7.03474 17.4054 7.42474 17.7399 7.61976 18.0162L7.76416 18.2198L6.9553 19.0269C6.2764 19.7104 6.16085 19.8485 6.24751 19.9286C6.3053 19.9794 6.73863 20.1467 7.2153 20.2921C7.69196 20.4375 8.11088 20.5902 8.14698 20.6265C8.18308 20.6629 8.12532 21.0337 7.98806 21.5427C7.86532 22.0154 7.78582 22.4298 7.80748 22.4661C7.84366 22.5316 9.03526 22.4734 9.23028 22.4007C9.41086 22.3352 9.48306 22.5097 9.53367 23.0842C9.56255 23.4187 9.60587 23.7023 9.63475 23.7168C9.69251 23.7531 10.5014 23.4041 10.5014 23.346C10.5014 23.3242 10.4075 23.1715 10.292 23.0042C9.80811 22.2916 9.47584 21.3973 9.21584 20.0812C9.04256 19.245 8.96306 18.4452 9.04978 18.4452C9.07866 18.4452 9.1292 18.6779 9.15808 18.9615C9.30256 20.5829 10.0464 22.6407 10.7253 23.3242C10.8986 23.4987 11.2742 23.7459 11.6353 23.9131L12.242 24.1966L12.2203 24.4657L12.1986 24.7347L10.5953 25.2728L8.99194 25.8109L8.84754 26.2544C8.76805 26.5016 8.43585 27.6286 8.1181 28.7702C7.52585 30.8424 7.3453 31.366 7.43197 30.748C7.46808 30.4425 7.45363 30.4135 7.08529 30.0063C4.78141 27.5051 3.35862 24.5747 2.80251 21.1719C2.59307 19.9286 2.61474 17.2673 2.83862 16.0457C3.46695 12.6138 4.85363 9.8144 7.12141 7.4222C10.8192 3.53215 15.9976 1.74345 21.342 2.52146ZM11.5703 26.0217C11.0503 27.1052 10.1259 29.7009 10.2053 29.8391C10.2414 29.9045 10.552 30.2026 10.8986 30.508C11.2525 30.8134 11.5487 31.097 11.5631 31.1479C11.5848 31.1987 11.4764 31.3587 11.3248 31.5114C11.1658 31.6787 11.1081 31.715 11.1803 31.6059C11.4619 31.1624 11.4836 31.2205 10.7542 30.5444C10.263 30.0862 10.0681 29.8609 10.0681 29.7373C10.0681 29.3592 11.498 25.7163 11.6497 25.7163C11.6858 25.7163 11.6497 25.8545 11.5703 26.0217Z" fill="black"/>
</svg>
